<svg
  width="1600"
  height="512"
  viewBox="0 0 1600 512"
  fill="none"
  xmlns="http://www.w3.org/2000/svg"
>
  <defs>
    <linearGradient id="panel" x1="112" y1="32" x2="1456" y2="512" gradientUnits="userSpaceOnUse">
      <stop stop-color="#171915" />
      <stop offset="1" stop-color="#10120F" />
    </linearGradient>
    <linearGradient id="iconPanel" x1="72" y1="72" x2="420" y2="420" gradientUnits="userSpaceOnUse">
      <stop stop-color="#1B211B" />
      <stop offset="1" stop-color="#121612" />
    </linearGradient>
    <linearGradient id="accent" x1="96" y1="96" x2="400" y2="400" gradientUnits="userSpaceOnUse">
      <stop stop-color="#7AF0BD" />
      <stop offset="0.55" stop-color="#48D597" />
      <stop offset="1" stop-color="#F4CC75" />
    </linearGradient>
    <radialGradient id="glowLeft" cx="0" cy="0" r="1" gradientUnits="userSpaceOnUse" gradientTransform="translate(250 142) rotate(51.6) scale(261.441 370.863)">
      <stop stop-color="#48D597" stop-opacity="0.22" />
      <stop offset="1" stop-color="#48D597" stop-opacity="0" />
    </radialGradient>
    <radialGradient id="glowRight" cx="0" cy="0" r="1" gradientUnits="userSpaceOnUse" gradientTransform="translate(1320 120) rotate(124.661) scale(298.254 479.052)">
      <stop stop-color="#F4CC75" stop-opacity="0.14" />
      <stop offset="1" stop-color="#F4CC75" stop-opacity="0" />
    </radialGradient>
    <filter id="shadow" x="0" y="0" width="1600" height="512" filterUnits="userSpaceOnUse" color-interpolation-filters="sRGB">
      <feFlood flood-opacity="0" result="BackgroundImageFix" />
      <feColorMatrix in="SourceAlpha" type="matrix" values="0 0 0 0 0 0 0 0 0 0 0 0 0 0 0 0 0 0 127 0" result="hardAlpha" />
      <feOffset dy="18" />
      <feGaussianBlur stdDeviation="20" />
      <feComposite in2="hardAlpha" operator="out" />
      <feColorMatrix type="matrix" values="0 0 0 0 0.0196078 0 0 0 0 0.027451 0 0 0 0 0.0235294 0 0 0 0.5 0" />
      <feBlend mode="normal" in2="BackgroundImageFix" result="effect1_dropShadow_1_1" />
      <feBlend mode="normal" in="SourceGraphic" in2="effect1_dropShadow_1_1" result="shape" />
    </filter>
  </defs>

  <g filter="url(#shadow)">
    <rect x="24" y="24" width="1552" height="432" rx="96" fill="url(#panel)" />
    <rect x="24.75" y="24.75" width="1550.5" height="430.5" rx="95.25" stroke="#A4B3A4" stroke-opacity="0.16" />
  </g>

  <rect x="24" y="24" width="1552" height="432" rx="96" fill="url(#glowLeft)" />
  <rect x="24" y="24" width="1552" height="432" rx="96" fill="url(#glowRight)" />

  <g>
    <rect x="72" y="72" width="352" height="336" rx="84" fill="url(#iconPanel)" />
    <rect x="72.75" y="72.75" width="350.5" height="334.5" rx="83.25" stroke="#A4B3A4" stroke-opacity="0.16" />

    <path
      d="M130 170C156 146 187 134 224 134H260C307 134 346 173 346 220V224"
      stroke="url(#accent)"
      stroke-width="16"
      stroke-linecap="round"
    />
    <path
      d="M346 248C346 304 300 350 244 350H212C177 350 148 337 126 312"
      stroke="url(#accent)"
      stroke-width="16"
      stroke-linecap="round"
    />

    <circle cx="118" cy="182" r="18" fill="#48D597" />
    <circle cx="354" cy="234" r="18" fill="#F4CC75" />
    <circle cx="118" cy="298" r="18" fill="#F4F2EB" />

    <path
      d="M161 180C161 156.804 179.804 138 203 138H288C311.196 138 330 156.804 330 180V247C330 270.196 311.196 289 288 289H232L190 321V289H203C179.804 289 161 270.196 161 247V180Z"
      fill="#48D597"
      fill-opacity="0.08"
      stroke="url(#accent)"
      stroke-width="14"
      stroke-linejoin="round"
    />

    <path d="M196 191H293" stroke="#F4F2EB" stroke-width="12" stroke-linecap="round" opacity="0.9" />
    <path d="M196 223H264" stroke="#9FA89F" stroke-width="12" stroke-linecap="round" opacity="0.9" />
    <path d="M196 255H244" stroke="#9FA89F" stroke-width="12" stroke-linecap="round" opacity="0.72" />

    <path
      d="M112 300L164 274"
      stroke="#F4F2EB"
      stroke-opacity="0.45"
      stroke-width="10"
      stroke-linecap="round"
    />
  </g>

  <g>
    <text
      x="496"
      y="214"
      fill="#F4F2EB"
      font-family="Manrope, Avenir Next, Segoe UI, sans-serif"
      font-size="124"
      font-weight="700"
      letter-spacing="-4"
    >
      Signal
    </text>
    <text
      x="920"
      y="214"
      fill="#48D597"
      font-family="Manrope, Avenir Next, Segoe UI, sans-serif"
      font-size="124"
      font-weight="700"
      letter-spacing="-4"
    >
      Rest UI
    </text>

    <text
      x="500"
      y="276"
      fill="#9FA89F"
      font-family="'JetBrains Mono', 'SFMono-Regular', Consolas, monospace"
      font-size="24"
      font-weight="600"
      letter-spacing="5"
    >
      CONTROL SURFACE FOR SIGNAL OPERATIONS
    </text>

    <rect x="500" y="322" width="190" height="54" rx="27" fill="#FFFFFF" fill-opacity="0.04" />
    <rect x="704" y="322" width="166" height="54" rx="27" fill="#48D597" fill-opacity="0.1" />
    <rect x="884" y="322" width="175" height="54" rx="27" fill="#F4CC75" fill-opacity="0.1" />

    <text
      x="548"
      y="356"
      fill="#F4F2EB"
      font-family="'JetBrains Mono', 'SFMono-Regular', Consolas, monospace"
      font-size="20"
      font-weight="700"
      letter-spacing="2"
    >
      LAN-SAFE
    </text>
    <text
      x="749"
      y="356"
      fill="#7AF0BD"
      font-family="'JetBrains Mono', 'SFMono-Regular', Consolas, monospace"
      font-size="20"
      font-weight="700"
      letter-spacing="2"
    >
      DIRECT
    </text>
    <text
      x="938"
      y="356"
      fill="#F4CC75"
      font-family="'JetBrains Mono', 'SFMono-Regular', Consolas, monospace"
      font-size="20"
      font-weight="700"
      letter-spacing="2"
    >
      PROXY READY
    </text>
  </g>
</svg>
